HIERARCHY
ROOT Hips
{
  OFFSET 1.44925e-005 102.336 -0.101585
  CHANNELS 6 Xposition Yposition Zposition Zrotation Xrotation Yrotation
  JOINT LeftUpLeg
  {
    OFFSET 8.9458 -8.66707 0.101652
    CHANNELS 3 Zrotation Xrotation Yrotation
    JOINT LeftLeg
    {
      OFFSET 0 -44.4227 1.3727
      CHANNELS 3 Zrotation Xrotation Yrotation
      JOINT LeftFoot
      {
        OFFSET -0.253549 -42.0924 -1.46059
        CHANNELS 3 Zrotation Xrotation Yrotation
        JOINT LeftToes
        {
          OFFSET -0.04 -4.41509 8.4991
          CHANNELS 3 Zrotation Xrotation Yrotation
          End Site
          {
            OFFSET 0.08 -0.047448 9.77979
          }
        }
      }
    }
  }
  JOINT Spine
  {
    OFFSET 0 11.8905 0
    CHANNELS 3 Zrotation Xrotation Yrotation
    JOINT Spine1
    {
      OFFSET 0 25.6574 0.127663
      CHANNELS 3 Zrotation Xrotation Yrotation
      JOINT RightShoulder
      {
        OFFSET -8.99 -0.362252 -0.22
        CHANNELS 3 Zrotation Xrotation Yrotation
        JOINT RightArm
        {
          OFFSET -10.2827 -0.00338 0.322123
          CHANNELS 3 Zrotation Xrotation Yrotation
          JOINT RightForeArm
          {
            OFFSET -26.364 0.099144 -1.42434
            CHANNELS 3 Zrotation Xrotation Yrotation
            JOINT RightHand
            {
              OFFSET -22.0324 0.085362 1.02216
              CHANNELS 3 Zrotation Xrotation Yrotation
              End Site
              {
                OFFSET -13.3284 -0.6 1.50291
              }
            }
          }
        }
      }
      JOINT LeftShoulder1
      {
        OFFSET 8.99 -0.362252 -0.22
        CHANNELS 3 Zrotation Xrotation Yrotation
        JOINT LeftArm
        {
          OFFSET 10.2827 -0.00337999 0.322123
          CHANNELS 3 Zrotation Xrotation Yrotation
          JOINT LeftForeArm
          {
            OFFSET 26.2597 0.099144 -1.42434
            CHANNELS 3 Zrotation Xrotation Yrotation
            JOINT LeftHand
            {
              OFFSET 22.0902 0.085362 1.02216
              CHANNELS 3 Zrotation Xrotation Yrotation
              End Site
              {
                OFFSET 13.419 -0.6 1.50291
              }
            }
          }
        }
      }
      JOINT Head
      {
        OFFSET 0 8.73416 0.011341
        CHANNELS 3 Zrotation Xrotation Yrotation
        End Site
        {
          OFFSET -0.29 12.7742 2.51395
        }
      }
    }
  }
  JOINT RightUpLeg
  {
    OFFSET -8.9458 -8.66707 0.101652
    CHANNELS 3 Zrotation Xrotation Yrotation
    JOINT RightLeg
    {
      OFFSET 0 -44.4227 1.3727
      CHANNELS 3 Zrotation Xrotation Yrotation
      JOINT RightFoot
      {
        OFFSET 0.253549 -42.0924 -1.46059
        CHANNELS 3 Zrotation Xrotation Yrotation
        JOINT RightToes
        {
          OFFSET 0.04 -4.41509 8.4991
          CHANNELS 3 Zrotation Xrotation Yrotation
          End Site
          {
            OFFSET -0.08 -0.137448 9.77979
          }
        }
      }
    }
  }
}
MOTION
Frames:	21
Frame Time:	0.0333333
194.808 103.121 3.68208 -3.75094 -0.367966 -92.874 -1.26751 2.95923 2.57723 -0.375093 7.36532 24.494 -1.94272 -10.7107 -0.00479097 -1.31804e-009 8.75243e-006 -1.47668e-008 0.399086 5.72872 0.167183 -1.63095 -2.6938 0.504248 37.0599 1.70968 -0.0699628 41.8427 -21.7651 4.93197 7.85672 39.5695 7.61841 -15.5699 8.86977 2.73199 -43.2956 3.49073 -3.5094 -29.8946 -14.2184 2.03665 -4.12355 39.4699 -14.1567 5.82328 9.61819 -0.917488 2.75945 5.12225 -4.68442 -0.818542 2.29728 -4.08571 0.0337495 9.89579 -9.78138 2.87763 -13.0738 -0.0684098 0.0462048 0.000530889 0.662642 
194.798 103.121 3.68313 -3.76947 -0.369927 -92.8396 -1.25948 2.98317 2.59295 -0.392964 7.36667 24.4459 -1.93416 -10.7164 -0.00479106 -1.31804e-009 8.75243e-006 -1.47668e-008 0.456462 5.66036 0.172952 -1.72757 -2.60734 0.528342 37.2049 1.70968 -0.0768677 41.7085 -21.7968 4.92453 7.88775 39.5562 7.5723 -15.5241 8.86993 2.71118 -43.2442 3.49073 -3.5094 -29.9145 -14.2894 1.93141 -4.15871 39.5437 -14.0969 5.82328 9.61819 -0.917488 2.79943 5.5093 -4.12304 -0.826632 2.32791 -4.10415 0.0450823 9.90099 -9.81571 2.93055 -13.0855 -0.0684131 0.0462048 0.000530889 0.662642 
194.778 103.121 3.68821 -3.79886 -0.379428 -92.7857 -1.26284 3.03207 2.60043 -0.403735 7.35393 24.3966 -2.01498 -10.7356 -0.00479137 -1.31804e-009 8.75243e-006 -1.47668e-008 0.55095 5.49827 0.182774 -1.85754 -2.3899 0.565409 37.332 1.70968 -0.0836881 41.5949 -21.843 4.94069 7.93779 39.47 7.50807 -15.5032 8.87073 2.66759 -43.224 3.49179 -3.51035 -29.9295 -14.4547 1.75124 -4.17176 39.642 -14.0504 5.82328 9.61819 -0.917488 2.89533 6.33929 -2.94932 -0.849556 2.3734 -4.14358 0.0638831 9.91719 -9.83838 2.96562 -13.1054 -0.0684186 0.0462048 0.000530889 0.662642 
194.764 103.121 3.69453 -3.81657 -0.391833 -92.7208 -1.27962 3.05719 2.58458 -0.390616 7.35261 24.3559 -2.10547 -10.7487 -0.00479158 -1.31804e-009 8.75243e-006 -1.47668e-008 0.615247 5.39056 0.188671 -1.91782 -2.25501 0.585311 37.2715 1.70968 -0.0855903 41.6481 -21.8966 4.94215 7.97258 39.3935 7.46587 -15.5634 8.87068 2.63789 -43.265 3.49768 -3.5166 -29.9431 -14.4538 1.65779 -4.0947 39.5775 -14.1497 5.82328 9.61819 -0.917488 2.90673 6.63361 -2.37071 -0.871744 2.41355 -4.1793 0.0825528 9.90676 -9.86268 2.95428 -13.1125 -0.0684206 0.0462048 0.000530889 0.662642 
194.762 103.121 3.69592 -3.8249 -0.399972 -92.6275 -1.28858 3.05104 2.56675 -0.375478 7.37326 24.2644 -2.07852 -10.7411 -0.00479145 -1.31804e-009 8.75243e-006 -1.47668e-008 0.617777 5.43489 0.18299 -1.89517 -2.35702 0.574378 37.1237 1.70968 -0.0830273 41.7466 -21.936 4.87299 7.98857 39.3825 7.44265 -15.6553 8.86365 2.64224 -43.3106 3.50759 -3.52946 -29.9656 -14.1328 1.7354 -3.94697 39.3005 -14.3907 5.82328 9.61819 -0.917488 2.75057 5.89872 -3.3388 -0.879902 2.45402 -4.19942 0.100387 9.86788 -9.93559 2.94839 -13.1088 -0.0684196 0.0462048 0.000530889 0.662642 
194.755 103.121 3.69597 -3.84933 -0.410096 -92.5141 -1.29476 3.07409 2.55614 -0.369717 7.3709 24.1343 -1.99526 -10.7238 -0.00479118 -1.31804e-009 8.75243e-006 -1.47668e-008 0.60604 5.53918 0.169164 -1.87469 -2.54523 0.554164 37.084 1.70968 -0.0757859 41.7046 -21.929 4.75452 7.98378 39.3732 7.45228 -15.6838 8.85687 2.67949 -43.335 3.51413 -3.53885 -29.9694 -13.7556 1.88695 -3.82722 39.0377 -14.599 5.82328 9.61819 -0.917488 2.45023 5.09461 -5.04912 -0.89085 2.50603 -4.22576 0.119117 9.85441 -10.025 2.96521 -13.118 -0.0684221 0.0462048 0.000530889 0.662642 
194.739 103.121 3.70416 -3.90139 -0.427263 -92.4057 -1.32133 3.15238 2.53372 -0.350937 7.32855 24.048 -1.99799 -10.7173 -0.00479108 -1.31804e-009 8.75243e-006 -1.47668e-008 0.642869 5.57963 0.155405 -1.91888 -2.58501 0.548667 37.1519 1.70968 -0.0652748 41.5641 -21.8917 4.67177 7.92839 39.3801 7.53355 -15.6266 8.85154 2.75315 -43.3857 3.51972 -3.54198 -29.9092 -13.665 1.95752 -3.83111 39.0001 -14.6071 5.82328 9.61819 -0.917488 2.29839 4.7431 -5.92798 -0.92173 2.57464 -4.27828 0.142646 9.87859 -10.0798 2.97117 -13.1499 -0.068431 0.0462048 0.000530889 0.662642 
194.733 103.121 3.72011 -3.95534 -0.436157 -92.2959 -1.35209 3.21244 2.49957 -0.311139 7.31445 24.0014 -2.07301 -10.7256 -0.00479121 -1.31804e-009 8.75243e-006 -1.47668e-008 0.707237 5.57776 0.138323 -1.96628 -2.48744 0.542505 37.1498 1.70954 -0.0560256 41.5361 -21.8993 4.69073 7.81742 39.5809 7.64213 -15.5496 8.84217 2.87047 -43.4891 3.52852 -3.54186 -29.803 -13.7723 1.93868 -3.95667 39.0325 -14.457 5.82328 9.61819 -0.917488 2.31678 4.67627 -5.68117 -0.950398 2.65182 -4.33397 0.174676 9.87757 -10.138 2.96593 -13.1772 -0.0684386 0.0462048 0.000530889 0.662642 
194.748 103.121 3.73236 -3.97373 -0.425242 -92.1679 -1.34728 3.18092 2.48311 -0.284447 7.37828 23.9052 -2.10037 -10.7289 -0.00479126 -1.31804e-009 8.75243e-006 -1.47668e-008 0.739394 5.60948 0.108966 -1.95259 -2.42917 0.510847 37.0383 1.70876 -0.051338 41.6644 -21.996 4.80754 7.74638 40.0066 7.63308 -15.5104 8.8263 3.01841 -43.5719 3.53512 -3.54016 -29.7345 -13.7271 1.95385 -4.09594 38.8354 -14.3472 5.82328 9.61819 -0.917488 2.28346 4.42156 -5.41537 -0.948954 2.70498 -4.35642 0.209292 9.82514 -10.253 2.97777 -13.1657 -0.0684354 0.0462048 0.000530889 0.662642 
194.771 103.121 3.73553 -3.94976 -0.416401 -92.0448 -1.31956 3.08941 2.48549 -0.293696 7.45865 23.7668 -2.05111 -10.7171 -0.00479107 -1.31804e-009 8.75243e-006 -1.47668e-008 0.750509 5.67171 0.0753626 -1.94852 -2.47967 0.474391 36.9985 1.70761 -0.0508912 41.7505 -22.12 4.9541 7.81095 40.364 7.44983 -15.5134 8.80921 3.15177 -43.5532 3.53117 -3.53811 -29.7395 -13.5236 2.06058 -4.15936 38.5142 -14.3537 5.82328 9.61819 -0.917488 2.17125 3.98296 -5.76638 -0.93711 2.69762 -4.3544 0.233656 9.78546 -10.3771 2.98413 -13.125 -0.0684241 0.0462048 0.000530889 0.662642 
194.793 103.121 3.73588 -3.91358 -0.433936 -91.96 -1.31991 3.01431 2.47249 -0.313632 7.48264 23.6916 -1.97482 -10.6979 -0.00479077 -1.31804e-009 8.75243e-006 -1.47668e-008 0.781825 5.73296 0.0601584 -2.02086 -2.57212 0.471847 37.113 1.70616 -0.0514554 41.6806 -22.1732 5.05561 7.94682 40.4368 7.24177 -15.533 8.79983 3.21419 -43.4838 3.52526 -3.53702 -29.7426 -13.5229 2.18114 -4.17188 38.5161 -14.3376 5.82328 9.61819 -0.917488 2.15501 3.61665 -6.14336 -0.951323 2.64181 -4.36753 0.248422 9.80428 -10.4426 2.95402 -13.1055 -0.0684186 0.0462048 0.000530889 0.662642 
194.819 103.12 3.73817 -3.90122 -0.459433 -91.9056 -1.34761 2.97466 2.44209 -0.315267 7.48495 23.6883 -1.89566 -10.6915 -0.00479067 -1.31804e-009 8.75243e-006 -1.47668e-008 0.809483 5.78419 0.0753428 -2.07197 -2.61681 0.499283 37.1948 1.70448 -0.0497642 41.6194 -22.1427 5.11542 8.00721 40.4141 7.17137 -15.5089 8.80474 3.18977 -43.4943 3.52597 -3.53825 -29.6629 -13.8462 2.23266 -4.20361 38.9521 -14.1943 5.82328 9.61819 -0.917488 2.25121 3.45609 -5.83304 -0.980071 2.59795 -4.39929 0.257103 9.84158 -10.4725 2.93257 -13.1257 -0.0684243 0.0462048 0.000530889 0.662642 
194.85 103.116 3.74441 -3.92742 -0.457004 -91.865 -1.35425 2.95568 2.43306 -0.303856 7.53263 23.6636 -1.84623 -10.7008 -0.00479082 -1.31804e-009 8.75243e-006 -1.47668e-008 0.818775 5.78775 0.10908 -2.02677 -2.54123 0.529467 37.0866 1.70263 -0.0442028 41.7437 -22.0805 5.19878 7.97022 40.4775 7.21955 -15.3615 8.82428 3.12237 -43.5955 3.537 -3.54451 -29.5415 -14.1726 2.22383 -4.27079 39.382 -14.0152 5.82328 9.61819 -0.917488 2.31425 3.37448 -4.98312 -0.98381 2.60733 -4.41449 0.26429 9.85374 -10.5052 2.95614 -13.1373 -0.0684275 0.0462048 0.000530889 0.662642 
194.875 103.113 3.75031 -3.98634 -0.432394 -91.8416 -1.33376 2.9671 2.45309 -0.292262 7.60821 23.6058 -1.87809 -10.7131 -0.00479101 -1.31804e-009 8.75243e-006 -1.47668e-008 0.885425 5.72281 0.134866 -2.0264 -2.35693 0.558958 36.9317 1.70066 -0.0371175 41.942 -21.9742 5.29544 7.92023 40.4036 7.32011 -15.117 8.84943 3.0665 -43.655 3.54657 -3.55337 -29.4755 -14.2676 2.20704 -4.35909 39.4703 -13.8952 5.82328 9.61819 -0.917488 2.33997 3.3027 -4.10573 -0.964122 2.66086 -4.40805 0.269783 9.85025 -10.5206 2.95881 -13.1063 -0.0684189 0.0462048 0.000530889 0.662642 
194.899 103.111 3.75542 -4.05902 -0.425526 -91.815 -1.3289 3.00645 2.46426 -0.282234 7.65774 23.5747 -1.95571 -10.7226 -0.00479116 -1.31804e-009 8.75243e-006 -1.47668e-008 1.01705 5.67792 0.133205 -2.16544 -2.21045 0.584295 36.9252 1.69865 -0.0320072 41.9926 -21.7519 5.29678 7.86048 40.0127 7.52447 -14.9471 8.86559 3.036 -43.615 3.54905 -3.55177 -29.4672 -14.3186 2.20636 -4.47991 39.4409 -13.7644 5.82328 9.61819 -0.917488 2.41718 3.46818 -3.25986 -0.962598 2.72347 -4.42056 0.278465 9.85585 -10.521 2.90444 -13.0838 -0.0684126 0.0462048 0.000530889 0.662642 
194.941 103.11 3.75888 -4.1198 -0.454661 -91.7428 -1.35685 3.02867 2.44548 -0.27972 7.6803 23.5452 -1.97854 -10.7242 -0.00479119 -1.31804e-009 8.75243e-006 -1.47668e-008 1.04292 5.73863 0.112542 -2.2347 -2.20969 0.576151 36.9812 1.69666 -0.0300019 41.9128 -21.4288 5.16455 7.70973 39.6062 7.87734 -14.9434 8.8676 3.0348 -43.5904 3.54851 -3.54176 -29.4399 -14.5297 2.20744 -4.62013 39.6098 -13.5619 5.82328 9.61819 -0.917488 2.48689 3.9905 -2.25508 -0.999585 2.75065 -4.46827 0.292884 9.89845 -10.5543 2.8892 -13.1228 -0.0684235 0.0462048 0.000530889 0.662642 
195.001 103.108 3.76049 -4.15492 -0.500121 -91.6373 -1.39874 3.01238 2.40868 -0.284055 7.69417 23.465 -1.93509 -10.6977 -0.00479077 -1.31804e-009 8.75243e-006 -1.47668e-008 0.877677 5.85895 0.0987931 -2.06912 -2.28521 0.531603 36.9222 1.69474 -0.0311749 41.869 -21.1201 4.98398 7.48462 39.4533 8.26968 -14.9431 8.86912 3.07992 -43.6645 3.546 -3.53667 -29.3671 -14.7183 2.21015 -4.71432 39.8676 -13.3964 5.82328 9.61819 -0.917488 2.45603 4.37741 -1.39784 -1.05252 2.71349 -4.51277 0.304011 10.0031 -10.6133 2.95735 -13.1764 -0.0684384 0.0462048 0.000530889 0.662642 
195.058 103.106 3.76254 -4.17865 -0.535554 -91.5564 -1.44044 2.99502 2.36596 -0.272293 7.69116 23.3979 -1.89122 -10.6439 -0.00478992 -1.31804e-009 8.75243e-006 -1.47668e-008 0.736306 5.99369 0.0931588 -1.91877 -2.37561 0.497913 36.8235 1.69296 -0.033658 41.8571 -20.8819 4.80512 7.32775 39.3093 8.55093 -14.7954 8.86919 3.15219 -43.7299 3.54264 -3.53612 -29.3028 -14.6297 2.214 -4.74882 39.961 -13.3529 5.82328 9.61819 -0.917488 2.41256 3.96935 -1.42064 -1.08788 2.65261 -4.52531 0.293001 10.1203 -10.6525 2.99004 -13.1801 -0.0684394 0.0462048 0.000530889 0.662642 
195.11 103.105 3.76499 -4.2074 -0.543018 -91.5096 -1.46288 2.99208 2.33589 -0.24031 7.68413 23.4013 -1.8723 -10.6158 -0.00478948 -1.31804e-009 8.75243e-006 -1.47668e-008 0.825878 6.19709 0.0652826 -2.0649 -2.55689 0.493251 36.8567 1.69139 -0.0361918 41.7748 -20.7383 4.61594 7.32938 39.0211 8.63646 -14.6996 8.86743 3.17127 -43.6521 3.53286 -3.52759 -29.2961 -14.4342 2.22846 -4.79793 39.9748 -13.3174 5.82328 9.61819 -0.917488 2.44006 2.80706 -2.39373 -1.08932 2.64075 -4.52367 0.288069 10.1471 -10.6951 2.93471 -13.1621 -0.0684344 0.0462048 0.000530889 0.662642 
195.172 103.107 3.76832 -4.22552 -0.520725 -91.4658 -1.44081 2.96023 2.34306 -0.225479 7.70834 23.3871 -1.8992 -10.6402 -0.00478986 -1.31804e-009 8.75243e-006 -1.47668e-008 0.983642 6.43187 0.0109107 -2.29511 -2.80744 0.473403 36.9455 1.69009 -0.0378382 41.6948 -20.8607 4.49506 7.46847 38.9768 8.44001 -14.9866 8.85905 3.06752 -43.4906 3.51318 -3.5131 -29.3495 -14.511 2.25743 -4.88116 40.149 -13.188 5.82328 9.61819 -0.917488 2.45824 1.97298 -3.15662 -1.06737 2.65588 -4.52253 0.314746 10.0928 -10.7676 2.9091 -13.1549 -0.0684324 0.0462048 0.000530889 0.662642 
195.241 103.114 3.77477 -4.20919 -0.497942 -91.437 -1.40464 2.8898 2.3619 -0.239286 7.73027 23.3168 -2.00577 -10.6429 -0.0047899 -1.31804e-009 8.75243e-006 -1.47668e-008 0.913794 6.50876 -0.0250963 -2.21142 -2.91532 0.416263 36.9043 1.68911 -0.034579 41.7396 -21.3343 4.54181 7.71114 39.2891 7.9578 -15.5798 8.84033 2.86803 -43.4365 3.50696 -3.50893 -29.4093 -14.7736 2.25702 -4.91185 40.368 -13.0892 5.82328 9.61819 -0.917488 2.45782 2.22316 -2.68227 -1.05582 2.60698 -4.51159 0.340164 10.0757 -10.8038 2.93631 -13.1085 -0.0684195 0.0462048 0.000530889 0.662642 
